<svg version="1.2" xmlns="http://www.w3.org/2000/svg" viewBox="0 0 728 135" width="728" height="135">
	<title>web3img-svg</title>
	<style>
		.s0 { fill: #ffffff } 
	</style>
	<path id="Layer" class="s0" d="m98.3 133.2q1.4 0.5 2.8 0.6 1.4 0.2 2.8 0 1.3-0.1 2.7-0.6 1.3-0.5 2.5-1.2c5.5-3.4 28.8-17.4 28.8-17.4 0 0 5.1-3 5.1-5.9v-14.9c0 0 0.4-2.9-1.3-4.2-1.7-1.3-6.8-4.2-9.3-5.6q-0.4-0.3-1-0.4-0.5-0.2-1-0.2-0.6 0-1.1 0.2-0.5 0.1-1 0.4-0.3 0.2-0.6 0.5-0.3 0.3-0.5 0.6-0.2 0.4-0.3 0.8 0 0.3 0 0.7v11.5q0 0.8-0.2 1.5-0.1 0.8-0.4 1.5-0.2 0.7-0.6 1.4-0.5 0.6-1 1.2-0.2 0.3-0.5 0.6-0.3 0.2-0.7 0.5-0.3 0.2-0.6 0.5-0.3 0.2-0.7 0.4c-4.2 2.5-20.3 11.4-20.3 11.4z"/>
	<path id="Layer" fill-rule="evenodd" class="s0" d="m34.8 16.4l-3.4-2.9c-2.9-2.4-7.7-2.9-10.7-1.2l-15.4 8.9q-1.2 0.6-2.2 1.6-1 1-1.7 2.2-0.7 1.2-1 2.6-0.4 1.3-0.4 2.7v42.6c0 3.5 2.9 7.4 6.4 8.7l4.2 1.5c3.5 1.3 6.4-0.5 6.4-4l-0.1-37.8q0.1-1.7 0.5-3.3 0.4-1.6 1.3-3 0.8-1.5 2-2.7 1.2-1.1 2.6-2l11.2-6.4c3-1.8 3.2-5.1 0.3-7.5zm5.2-1.4c0 0 3.8 1.8 7 0 3.3-1.8 9.1-5.2 9.1-5.2 0 0 1.7-1.4 0-3.7-1.7-2.2-8.8-5.6-8.8-5.6 0 0-4.3-1.3-7.2 0.4l-7.2 4.2c0 0-2.6 2.1-0.9 4.3 1.7 2.1 8 5.6 8 5.6zm101.7 44.7q-0.2-0.2-0.3-0.3-0.2-0.2-0.3-0.3-0.2-0.1-0.4-0.2-0.2-0.2-0.3-0.3c-5.8-3.4-59.9-35.4-63.9-37.8-3.4-2-7.4-1.1-8.9-0.6q-0.2 0.1-0.3 0.1-0.1 0.1-0.3 0.1-0.1 0.1-0.2 0.1-0.1 0.1-0.2 0.1l-28.2 15.5q-1.9 1.1-3.4 2.6-1.6 1.6-2.7 3.5-1.1 1.9-1.7 4-0.5 2.1-0.5 4.3v39.2c0 3.5 2.8 7.3 6.3 8.6l4.3 1.6c3.5 1.2 6.3-0.6 6.3-4v-34.4q0-2.5 0.7-4.8 0.6-2.4 1.8-4.6 1.3-2.1 3-3.9 1.8-1.7 3.9-2.9c1.4-0.9 8-5.7 13.6-6.2 6.4-0.6 9 8 3.4 11.2l-5.4 3.2q-1.9 1.1-3.4 2.6-1.6 1.6-2.7 3.5-1.1 1.8-1.6 4-0.6 2.1-0.6 4.3v39.1c0 3.5 2.8 7.4 6.3 8.7l4.3 1.5c3.5 1.3 6.3-0.5 6.3-4v-34.3q0-2.5 0.7-4.9 0.6-2.4 1.9-4.5 1.2-2.1 2.9-3.9 1.8-1.7 3.9-3c1.5-0.8 7.6-5.6 14.4-6.3 6.2-0.7 8.6 8.1 3.2 11.2l-5 2.9q-1.9 1.1-3.5 2.6-1.5 1.6-2.6 3.5-1.1 1.9-1.7 4-0.6 2.1-0.5 4.3v39.2c0 3.5 2.8 7.4 6.3 8.6l4.2 1.6c3.5 1.3 6.4-0.5 6.4-4v-34.4q0-2.4 0.6-4.8 0.7-2.4 1.9-4.6 1.2-2.1 3-3.8 1.7-1.8 3.9-3l8.1-4.7c0 0 10.2-6.2 15.7-9.2 4-2.2 2.5-4.7 1.3-6z"/>
	<path id="Layer" class="s0" d="m200.3 15h15.8l12.1 53.7 15-53.7h13.3l15.3 53.7 12-53.7h15.7l-18.9 84h-15.3l-15.5-54.3-15.2 54.3h-15.2z"/>
	<path id="Layer" fill-rule="evenodd" class="s0" d="m372.6 72.4h-50.1q0.2 1.6 0.7 3 0.5 1.5 1.2 2.9 0.8 1.3 1.8 2.5 0.9 1.2 2.1 2.2 1.3 1 2.7 1.8 1.4 0.7 3 1.2 1.5 0.5 3.1 0.7 1.6 0.3 3.2 0.2 2.1 0 4.2-0.4 2-0.4 3.9-1.1 2-0.8 3.7-2 1.7-1.1 3.2-2.6l13.2 6.2q-1.1 1.6-2.4 3.1-1.3 1.5-2.8 2.8-1.5 1.3-3.1 2.4-1.7 1.2-3.4 2-1.9 0.9-3.9 1.6-2 0.6-4.1 1-2.1 0.5-4.1 0.7-2.1 0.1-4.2 0.1-14.7 0-23.9-9.2-9.2-9.3-9.2-23.2 0-14.2 9.2-23.6 9.2-9.4 23-9.4 14.7 0 23.9 9.4 9.2 9.4 9.2 24.8zm-15.6-12.2q-0.3-1.3-0.9-2.5-0.6-1.2-1.4-2.3-0.8-1.1-1.7-2-0.9-0.9-2-1.7-1.2-0.8-2.5-1.4-1.2-0.7-2.6-1.1-1.3-0.4-2.7-0.6-1.4-0.2-2.8-0.2-1.5 0-3.1 0.2-1.5 0.3-2.9 0.7-1.5 0.5-2.8 1.2-1.4 0.7-2.6 1.6-3.1 2.3-5.8 8.1z"/>
	<path id="Layer" fill-rule="evenodd" class="s0" d="m400.8 12.8v30.9q0.9-1 2-1.9 1.1-0.9 2.2-1.7 1.2-0.8 2.4-1.5 1.2-0.7 2.5-1.2 1.3-0.6 2.6-1 1.2-0.4 2.6-0.7 1.3-0.2 2.6-0.4 1.4-0.1 2.7-0.1 3 0 5.8 0.6 2.9 0.6 5.6 1.8 2.7 1.2 5 2.9 2.4 1.7 4.3 3.9 8.5 9.2 8.5 23.6 0 13.9-8.8 23.3-8.8 9.3-20.8 9.3-1.3 0-2.6-0.1-1.2-0.1-2.5-0.3-1.3-0.3-2.5-0.6-1.2-0.4-2.4-0.9-1.3-0.6-2.5-1.2-1.2-0.7-2.4-1.5-1.1-0.8-2.2-1.7-1.1-0.9-2.1-1.8v6.5h-15.5v-86.2zm16.4 36.8q-1.7 0-3.4 0.3-1.7 0.3-3.3 0.9-1.5 0.7-2.9 1.6-1.5 1-2.6 2.2-4.9 5-4.9 13.2-0.1 1.8 0.2 3.6 0.3 1.8 0.9 3.5 0.6 1.7 1.6 3.3 0.9 1.6 2.1 3 1.2 1.2 2.6 2.2 1.4 1 3 1.6 1.6 0.7 3.3 1 1.7 0.3 3.4 0.3 1.7 0 3.3-0.3 1.7-0.3 3.2-1 1.6-0.7 3-1.7 1.3-1 2.5-2.2 1.2-1.3 2.2-2.9 0.9-1.5 1.5-3.2 0.7-1.7 1-3.5 0.2-1.8 0.2-3.6 0-8-4.8-13.2-1.2-1.2-2.6-2.2-1.3-1-2.9-1.6-1.6-0.7-3.2-1-1.7-0.3-3.4-0.3z"/>
	<path id="Layer" class="s0" d="m476.9 35.7h-15.4q1.2-9.3 6.7-15 1.9-2 4.1-3.5 2.2-1.5 4.7-2.5 2.5-1 5.2-1.5 2.6-0.5 5.3-0.4 2.4-0.1 4.7 0.3 2.4 0.4 4.6 1.3 2.2 0.8 4.3 2.1 2 1.2 3.7 2.9 1.7 1.4 3 3.2 1.3 1.8 2.2 3.8 0.9 2 1.4 4.2 0.4 2.2 0.4 4.4 0 1.3-0.2 2.7-0.1 1.3-0.5 2.6-0.4 1.3-1 2.6-0.6 1.2-1.3 2.3-0.9 1.2-1.8 2.3-1 1.1-2.2 2.1-1.1 0.9-2.3 1.7-1.3 0.8-2.6 1.4 1.8 0.5 3.4 1.3 1.7 0.7 3.2 1.8 1.6 1 2.9 2.2 1.4 1.3 2.5 2.7 1.1 1.5 1.9 3.1 0.8 1.6 1.4 3.3 0.5 1.7 0.8 3.5 0.2 1.8 0.2 3.5 0 2.8-0.5 5.4-0.5 2.7-1.6 5.2-1.1 2.5-2.7 4.7-1.6 2.2-3.6 4-8.3 7.8-21.2 7.8-12.3 0-20-7.4-7.8-7.4-8.5-20.2h15.9q1 6.5 4.5 9.7c1.3 1.1 2.8 1.9 4.3 2.4 1.6 0.6 3.3 0.8 4.9 0.8 1.7-0.1 3.3-0.4 4.8-1 1.6-0.6 3-1.5 4.2-2.6 1.2-1.1 2.1-2.4 2.7-3.9 0.6-1.5 1-3 1-4.6 0-1.6-0.3-3.2-0.8-4.7-0.6-1.4-1.5-2.8-2.6-3.9q-0.2-0.2-0.4-0.4-0.2-0.2-0.4-0.3-0.2-0.2-0.4-0.4-0.2-0.1-0.4-0.3-5-3.9-14.3-4v-13.8q1.1 0 2.2-0.2 1.1-0.1 2.2-0.3 1-0.3 2.1-0.6 1.1-0.3 2.1-0.7 0.7-0.3 1.3-0.7 0.6-0.4 1.1-0.8 0.6-0.5 1.1-1 0.5-0.6 0.9-1.2 0.4-0.5 0.7-1.1 0.3-0.6 0.5-1.3 0.1-0.6 0.3-1.3 0.1-0.6 0.1-1.3 0-0.8-0.2-1.6-0.1-0.7-0.4-1.5-0.3-0.7-0.8-1.4-0.5-0.6-1-1.2-0.7-0.5-1.4-1-0.8-0.4-1.6-0.7-0.8-0.3-1.6-0.4-0.9-0.2-1.7-0.1-0.9 0-1.7 0.1-0.8 0.1-1.6 0.4-0.8 0.3-1.6 0.7-0.7 0.3-1.4 0.9-0.6 0.5-1.2 1.1-0.6 0.6-1.1 1.3-0.5 0.7-0.9 1.4-0.3 0.8-0.6 1.6z"/>
	<path id="Layer" fill-rule="evenodd" class="s0" d="m534.2 11.2q1 0 2 0.2 0.9 0.2 1.8 0.6 0.9 0.4 1.7 0.9 0.8 0.6 1.5 1.3c0.9 1 1.7 2.1 2.2 3.3 0.5 1.2 0.7 2.5 0.7 3.9 0 1.3-0.2 2.6-0.7 3.8-0.5 1.3-1.3 2.4-2.2 3.3q-0.7 0.7-1.5 1.3-0.8 0.6-1.7 1-0.9 0.4-1.8 0.5-1 0.2-2 0.2-1 0-2-0.1-0.9-0.2-1.9-0.6-0.9-0.4-1.7-1-0.8-0.5-1.5-1.3c-1.4-1.4-2.3-3.2-2.7-5.1-0.4-2-0.2-4 0.5-5.8 0.8-1.9 2-3.4 3.7-4.6 1.6-1.1 3.5-1.7 5.5-1.8zm-7.8 25.7h15.6v62.1h-15.6zm29.7 0h15.6v7.2q0.9-1.1 1.9-2 1.1-1 2.2-1.8 1.1-0.8 2.3-1.5 1.2-0.7 2.5-1.3 1.2-0.6 2.5-1 1.4-0.4 2.7-0.7 1.3-0.2 2.7-0.4 1.4-0.1 2.7-0.1 1.4 0 2.8 0.2 1.4 0.1 2.7 0.5 1.3 0.4 2.6 0.9 1.3 0.6 2.5 1.3 1.2 0.7 2.3 1.7 1.1 0.9 2 1.9 1 1.1 1.8 2.3 0.8 1.1 1.4 2.4 0.9-1.3 1.9-2.5 1-1.2 2.2-2.2 1.1-1.1 2.4-2 1.3-0.9 2.6-1.6 1.4-0.7 2.8-1.3 1.5-0.5 3-0.9 1.5-0.4 3-0.5 1.5-0.2 3.1-0.2 1.5 0 3 0.2 1.5 0.1 3 0.5 1.5 0.4 2.9 1 1.4 0.6 2.7 1.4 1.2 0.7 2.3 1.6 1 0.8 2 1.9 0.9 1 1.6 2.2 0.8 1.1 1.4 2.4 2.2 5 2.2 16.1v36.5h-15.8v-31.6q0-10.5-2.6-14.3-2.6-3.7-7.9-3.7-0.9 0-1.9 0.1-0.9 0.2-1.8 0.5-0.9 0.2-1.8 0.7-0.8 0.4-1.6 1-0.8 0.6-1.5 1.3-0.7 0.7-1.3 1.5-0.7 0.8-1.1 1.6-0.5 0.9-0.9 1.9-1.5 4-1.5 13v28h-15.7v-30.1q0-8.4-1.2-12.1-0.3-0.8-0.6-1.6-0.4-0.8-0.8-1.5-0.5-0.7-1.1-1.3-0.6-0.6-1.2-1.2-0.7-0.5-1.4-0.8-0.7-0.4-1.5-0.6-0.7-0.2-1.5-0.3-0.8-0.1-1.6-0.1-1 0-1.9 0.1-0.9 0.2-1.8 0.5-1 0.3-1.8 0.7-0.8 0.4-1.6 1-0.8 0.6-1.5 1.3-0.8 0.8-1.4 1.6-0.6 0.8-1 1.7-0.5 0.9-0.9 1.9-1.5 4.2-1.5 13.1v27.7h-15.6zm156.1 0h15.5v53.2q0 15.8-6.3 23.2-8.5 10.1-25.7 10.1-1.9 0.1-3.9-0.1-1.9-0.1-3.9-0.4-1.9-0.3-3.8-0.7-1.9-0.5-3.8-1.1-3-1-5.6-2.7-2.7-1.7-4.9-4-2.2-2.3-3.8-5-1.6-2.7-2.5-5.8h17.2q0.6 0.7 1.3 1.3 0.6 0.6 1.4 1.1 0.7 0.5 1.5 0.9 0.8 0.4 1.7 0.7 1 0.4 2 0.6 1.1 0.3 2.2 0.5 1 0.1 2.1 0.2 1.1 0.1 2.2 0.1 1.3 0 2.6-0.1 1.3-0.1 2.6-0.3 1.2-0.3 2.5-0.7 1.2-0.3 2.4-0.9 0.9-0.4 1.6-0.9 0.8-0.5 1.5-1.1 0.7-0.7 1.3-1.4 0.6-0.8 1-1.6 1.6-3.1 1.6-10.6-0.9 0.9-1.9 1.8-1 0.8-2.1 1.6-1.1 0.7-2.3 1.4-1.1 0.6-2.4 1.1-1.2 0.5-2.4 0.8-1.3 0.4-2.6 0.6-1.3 0.2-2.6 0.3-1.3 0.1-2.6 0.1-3 0.1-5.9-0.5-2.9-0.6-5.6-1.7-2.8-1.2-5.2-2.9-2.4-1.7-4.4-3.9-8.7-9-8.7-22.9 0-14.8 9.2-23.7 1.9-2 4.2-3.5 2.3-1.6 4.8-2.6 2.6-1.1 5.3-1.6 2.7-0.5 5.5-0.5 1.3 0 2.6 0.2 1.3 0.1 2.5 0.3 1.3 0.3 2.6 0.7 1.2 0.4 2.4 0.8 1.3 0.6 2.6 1.3 1.3 0.7 2.5 1.6 1.2 0.8 2.3 1.7 1.1 0.9 2.2 1.9zm-16.2 13q-1.7 0-3.4 0.3-1.6 0.3-3.2 0.9-1.6 0.6-3 1.6-1.4 0.9-2.6 2.2-1.2 1.2-2.1 2.6-0.9 1.5-1.5 3.1-0.7 1.6-1 3.3-0.3 1.7-0.2 3.4-0.1 1.7 0.2 3.5 0.3 1.7 1 3.4 0.6 1.6 1.5 3.1 1 1.5 2.2 2.7 1.2 1.3 2.6 2.2 1.5 1 3.1 1.6 1.6 0.7 3.2 1 1.7 0.3 3.5 0.2 1.6 0.1 3.3-0.2 1.6-0.3 3.2-0.9 1.5-0.7 2.9-1.6 1.4-0.9 2.6-2.1 4.7-4.9 4.7-12.8 0-7.9-4.7-12.6-1.2-1.2-2.7-2.2-1.4-0.9-3-1.6-1.5-0.6-3.2-0.9-1.7-0.3-3.4-0.2z"/>
</svg>