<svg id="图层_1" data-name="图层 1" xmlns="http://www.w3.org/2000/svg" xmlns:xlink="http://www.w3.org/1999/xlink" viewBox="0 0 727.73 134.6"><defs><style>.cls-1{fill:url(#未命名的渐变);}.cls-2{fill:url(#未命名的渐变_2);}.cls-3{fill:#bdbdbd;}.cls-4{fill:url(#未命名的渐变_3);}</style><linearGradient id="未命名的渐变" x1="395.84" y1="4249.7" x2="439.34" y2="4206.19" gradientTransform="translate(-296.92 -4115.89)" gradientUnits="userSpaceOnUse"><stop offset="0" stop-color="#022d90"/><stop offset="0.48" stop-color="#2883fb"/><stop offset="1" stop-color="#00167e"/></linearGradient><linearGradient id="未命名的渐变_2" x1="296.92" y1="4183.2" x2="439.93" y2="4183.2" gradientTransform="translate(-296.92 -4115.89)" gradientUnits="userSpaceOnUse"><stop offset="0" stop-color="#ff003d"/><stop offset="0.48" stop-color="#2883fb"/><stop offset="1" stop-color="#0fc"/></linearGradient><linearGradient id="未命名的渐变_3" x1="821.15" y1="4183.2" x2="1024.65" y2="4183.2" xlink:href="#未命名的渐变_2"/></defs><path class="cls-1" d="M98.35,133.24A12.53,12.53,0,0,0,109.08,132c5.51-3.39,28.81-17.37,28.81-17.37s5.08-3,5.08-5.93V93.76s.43-2.87-1.27-4.14-6.81-4.2-9.27-5.6a4,4,0,0,0-4.11,0,2.92,2.92,0,0,0-1.45,2.63V98.12a8.19,8.19,0,0,1-2.14,5.59,11.62,11.62,0,0,1-2.52,2c-4.23,2.54-20.33,11.44-20.33,11.44Z" transform="translate(0 -0.01)"/><path class="cls-2" d="M34.48,23.89,23.32,30.33a12.74,12.74,0,0,0-6.37,11V79.12c0,3.51-2.85,5.32-6.36,4L6.35,81.58C2.85,80.3,0,76.42,0,72.91V30.33a10.59,10.59,0,0,1,5.3-9.17l15.37-8.83c3-1.75,7.82-1.23,10.68,1.17l3.46,2.9C37.67,18.76,37.52,22.14,34.48,23.89ZM40,15s3.75,1.8,7,0,9.14-5.18,9.14-5.18,1.7-1.43,0-3.68S47.28.47,47.28.47,43-.81,40.07.89l-7.2,4.24S30.33,7.24,32,9.36,40,15,40,15ZM141.69,59.7a6,6,0,0,0-1.33-1.07c-5.8-3.43-59.88-35.42-63.89-37.83-3.37-2-7.4-1.05-8.91-.57a4.64,4.64,0,0,0-1,.43L38.4,36.11A16.59,16.59,0,0,0,30.08,50.5V89.67c0,3.51,2.84,7.39,6.35,8.67l4.24,1.54c3.51,1.28,6.35-.53,6.35-4V61.53a18.77,18.77,0,0,1,9.39-16.26s8-5.62,13.54-6.14c6.4-.6,9,8,3.49,11.23L68,53.48a16.62,16.62,0,0,0-8.31,14.39V107c0,3.51,2.85,7.39,6.36,8.67l4.23,1.54c3.51,1.28,6.36-.53,6.36-4V78.9a18.76,18.76,0,0,1,9.4-16.26s7.56-5.62,14.33-6.37c6.22-.69,8.61,8.12,3.19,11.25l-5,2.9a16.58,16.58,0,0,0-8.31,14.4V124c0,3.51,2.84,7.39,6.35,8.66l4.24,1.55c3.51,1.27,6.35-.54,6.35-4V95.84a18.75,18.75,0,0,1,9.39-16.25l8.15-4.71s10.21-6.21,15.72-9.17C144.43,63.56,142.86,61,141.69,59.7Z" transform="translate(0 -0.01)"/><path class="cls-3" d="M200.34,15h15.74l12.15,53.67,15-53.67h13.31l15.23,53.67,12-53.67h15.74L280.62,99H265.28L249.79,44.67,234.58,99h-15.2Z" transform="translate(0 -0.01)"/><path class="cls-3" d="M372.65,72.45H322.52A16.79,16.79,0,0,0,328.32,83a18.2,18.2,0,0,0,12,3.91,20.86,20.86,0,0,0,15-6.11L368.47,87a31.17,31.17,0,0,1-11.71,10.36,36.91,36.91,0,0,1-16.29,3.34q-14.64,0-23.84-9.23t-9.2-23.11q0-14.25,9.18-23.64t23-9.4q14.7,0,23.9,9.4t9.2,24.84ZM357.08,60.16A15.69,15.69,0,0,0,351,51.7a17.68,17.68,0,0,0-10.57-3.26A18.63,18.63,0,0,0,329,52.1q-3.09,2.3-5.72,8.06Z" transform="translate(0 -0.01)"/><path class="cls-3" d="M400.77,12.83V43.7a29,29,0,0,1,9.15-6.34,26,26,0,0,1,10.52-2.12,27.17,27.17,0,0,1,20.69,9.2q8.52,9.21,8.52,23.61,0,13.89-8.81,23.24T420,100.63a26.35,26.35,0,0,1-10-1.91,30.67,30.67,0,0,1-9.21-6.26V99H385.28V12.83Zm16.41,36.81a16.28,16.28,0,0,0-12.23,5q-4.87,5-4.87,13.12a19.07,19.07,0,0,0,4.86,13.41,16.16,16.16,0,0,0,12.23,5.13,15.91,15.91,0,0,0,12-5.2,18.62,18.62,0,0,0,4.91-13.23q0-8-4.8-13.12A15.9,15.9,0,0,0,417.18,49.64Z" transform="translate(0 -0.01)"/><path class="cls-3" d="M476.91,35.7H461.54q1.18-9.32,6.68-15a25.68,25.68,0,0,1,19.27-7.89,24.34,24.34,0,0,1,17.34,6.58,20.72,20.72,0,0,1,7,15.6,18.17,18.17,0,0,1-3.06,10.23,21.89,21.89,0,0,1-8.89,7.54,22.54,22.54,0,0,1,12,8,21.57,21.57,0,0,1,4.32,13.4,25.38,25.38,0,0,1-8.37,19.22q-8.34,7.86-21.26,7.86-12.24,0-20-7.41t-8.49-20.2H474q1,6.53,4.54,9.69a13.9,13.9,0,0,0,18.18-.43,12.1,12.1,0,0,0,.28-17.1,12,12,0,0,0-1.57-1.36q-5-3.95-14.35-4.06V46.62a26,26,0,0,0,8.61-1.81,10.85,10.85,0,0,0,4.4-3.68,8.92,8.92,0,0,0,1.57-5,7.48,7.48,0,0,0-2.4-5.69,8.72,8.72,0,0,0-6.29-2.26,10.11,10.11,0,0,0-6.23,2.09A10.36,10.36,0,0,0,476.91,35.7Z" transform="translate(0 -0.01)"/><path class="cls-4" d="M534.21,11.23a9.5,9.5,0,0,1,7,3,10.21,10.21,0,0,1,0,14.31,9.41,9.41,0,0,1-7,3,9.61,9.61,0,0,1-7.1-3,10.16,10.16,0,0,1,7-17.29h0Zm-7.8,25.61H542V99H526.41Zm29.67,0h15.6V44a26.37,26.37,0,0,1,8.9-6.58,25.93,25.93,0,0,1,10.67-2.17,19.78,19.78,0,0,1,10.52,2.86,20.59,20.59,0,0,1,7.55,8.34,25.1,25.1,0,0,1,9.12-8.34,24.69,24.69,0,0,1,11.82-2.86,21.74,21.74,0,0,1,11.66,3.09,17.75,17.75,0,0,1,7.24,8.06q2.21,5,2.2,16.17V99H635.64V67.48q0-10.58-2.63-14.32c-1.75-2.5-4.38-3.74-7.88-3.74A11.85,11.85,0,0,0,618,51.7,13.53,13.53,0,0,0,613.24,58q-1.54,4-1.55,13V99.08H596V68.91q0-8.37-1.23-12.09a11,11,0,0,0-3.69-5.57,9.62,9.62,0,0,0-6-1.83A11.72,11.72,0,0,0,578,51.73a13.69,13.69,0,0,0-4.75,6.49q-1.57,4.17-1.58,13.15V99H556.08Zm156.1,0h15.55V90.11q0,15.78-6.35,23.21-8.5,10.07-25.66,10.06a45.14,45.14,0,0,1-15.38-2.29,26.83,26.83,0,0,1-16.86-17.49h17.21a14.26,14.26,0,0,0,5.88,4,24.67,24.67,0,0,0,8.52,1.34A22.71,22.71,0,0,0,705.21,107a11.89,11.89,0,0,0,5.4-5q1.56-3.09,1.57-10.64a25.92,25.92,0,0,1-8.63,5.92,27.73,27.73,0,0,1-10.23,1.8,28.11,28.11,0,0,1-21.15-9q-8.64-9-8.63-22.86,0-14.8,9.14-23.78a27.25,27.25,0,0,1,19.78-8.12,26.39,26.39,0,0,1,10.15,2,32.21,32.21,0,0,1,9.57,6.49ZM696,49.84a16.21,16.21,0,0,0-12.17,4.92A17.06,17.06,0,0,0,679,67.19a17.39,17.39,0,0,0,4.91,12.75,16.68,16.68,0,0,0,12.35,5,16.06,16.06,0,0,0,12-4.86Q713,75.19,713,67.31t-4.74-12.64A16.36,16.36,0,0,0,696,49.8Z" transform="translate(0 -0.01)"/></svg>